<?xml version="1.0" encoding="UTF-8"?>
<svg xmlns="http://www.w3.org/2000/svg" width="1024" height="1024" viewBox="0 0 1024 1024">
  <defs>
    <mask id="mask-B-mono">
      <g fill="#fff">
        <rect x="208" y="192" width="176" height="640" rx="88"/>
        <rect x="344" y="192" width="320" height="256" rx="128"/>
        <rect x="344" y="576" width="320" height="256" rx="128"/>
      </g>
      <g fill="#000">
        <rect x="388" y="236" width="200" height="168" rx="84"/>
        <rect x="388" y="620" width="200" height="168" rx="84"/>
      </g>
    </mask>
    <mask id="mask-B2-mono">
      <g fill="#fff">
        <rect x="520" y="192" width="176" height="640" rx="88"/>
        <rect x="656" y="192" width="320" height="256" rx="128"/>
        <rect x="656" y="576" width="320" height="256" rx="128"/>
      </g>
      <g fill="#000">
        <rect x="700" y="236" width="200" height="168" rx="84"/>
        <rect x="700" y="620" width="200" height="168" rx="84"/>
      </g>
    </mask>
  </defs>

  <!-- Transparent canvas with solid monogram (good for embossing / masks) -->
  <rect x="0" y="0" width="1024" height="1024" fill="none"/>
  <rect x="0" y="0" width="1024" height="1024" fill="#111" mask="url(#mask-B-mono)"/>
  <rect x="0" y="0" width="1024" height="1024" fill="#111" mask="url(#mask-B2-mono)"/>
  <g transform="translate(770,180) rotate(15)">
    <path d="M0,28 L20,20 L28,0 L36,20 L56,28 L36,36 L28,56 L20,36 Z" fill="#111"/>
  </g>
</svg>
